<mxfile host="65bd71144e">
    <diagram id="1yH_30nA815stnZG2JoB" name="Page-1">
        <mxGraphModel dx="1395" dy="809" grid="1" gridSize="10" guides="1" tooltips="1" connect="1" arrows="1" fold="1" page="1" pageScale="1" pageWidth="1169" pageHeight="1654" math="0" shadow="0">
            <root>
                <mxCell id="0"/>
                <mxCell id="1" parent="0"/>
                <mxCell id="2" value="sistemasdev" style="shape=cylinder3;boundedLbl=1;backgroundOutline=1;size=15;verticalAlign=middle;html=1;whiteSpace=wrap;labelBorderColor=none;labelBackgroundColor=none;fontColor=default;" parent="1" vertex="1">
                    <mxGeometry x="880" y="373" width="60" height="80" as="geometry"/>
                </mxCell>
                <mxCell id="5" style="edgeStyle=none;html=1;entryX=0;entryY=0;entryDx=0;entryDy=27.5;entryPerimeter=0;fontColor=default;" parent="1" source="3" target="2" edge="1">
                    <mxGeometry relative="1" as="geometry"/>
                </mxCell>
                <mxCell id="3" value="URL : Marianista" style="outlineConnect=0;dashed=0;verticalLabelPosition=bottom;verticalAlign=top;align=center;html=1;shape=mxgraph.aws3.api_gateway;fillColor=#D9A741;gradientColor=none;" parent="1" vertex="1">
                    <mxGeometry x="110" y="360" width="76.5" height="93" as="geometry"/>
                </mxCell>
            </root>
        </mxGraphModel>
    </diagram>
</mxfile>